<?xml version="1.0" encoding="utf-8"?>
<!-- Generator: Adobe Illustrator 18.0.0, SVG Export Plug-In . SVG Version: 6.00 Build 0)  -->
<!DOCTYPE svg PUBLIC "-//W3C//DTD SVG 1.1//EN" "http://www.w3.org/Graphics/SVG/1.1/DTD/svg11.dtd">
<svg version="1.1" id="Layer_1" xmlns="http://www.w3.org/2000/svg" xmlns:xlink="http://www.w3.org/1999/xlink" x="0px" y="0px"
	 viewBox="0 0 227.53 102.143" enable-background="new 0 0 227.53 102.143" xml:space="preserve">
<g>
	<path opacity="0.6" fill="#3FA9F5" d="M224.556,47.018l-22.908-7.579l-1.284-0.438c-18.704,12.517-39.366,18.622-63.56,18.622
		c-42.109,0-78.786-22.114-99.594-55.356l-8.707,23.946l-26.731,1.71c28.755,44.21,78.362,73.219,135.032,73.219
		c34.113,0,63.651-9.175,89.707-27.252l-0.048-1.269L224.556,47.018z"/>
	<path fill="none" stroke="#009EDF" stroke-width="2" stroke-miterlimit="10" d="M224.556,47.018l-22.908-7.579l-1.284-0.438
		c-18.704,12.517-39.366,18.622-63.56,18.622c-42.109,0-78.786-22.114-99.594-55.356l-8.707,23.946l-26.731,1.71
		c28.755,44.21,78.362,73.219,135.032,73.219c34.113,0,63.651-9.175,89.707-27.252l-0.048-1.269L224.556,47.018z"/>
</g>
<g id="Countdown">
	<path fill="#FFFFFF" d="M203.66,67.666c0.604,0.255,1.243,0.353,1.914,0.293c0.672-0.06,1.292-0.251,1.859-0.574
		c0.695-0.395,1.251-0.883,1.665-1.463s0.692-1.21,0.835-1.89c0.144-0.68,0.152-1.386,0.026-2.119
		c-0.126-0.734-0.386-1.449-0.781-2.145c-0.369-0.649-0.822-1.204-1.36-1.665c-0.538-0.462-1.129-0.8-1.773-1.017
		s-1.323-0.291-2.036-0.224c-0.713,0.068-1.429,0.306-2.147,0.715c-0.707,0.401-1.245,0.898-1.614,1.492
		c-0.368,0.592-0.59,1.255-0.664,1.987l-2.012-0.26c0.021-0.181,0.079-0.456,0.176-0.825s0.269-0.781,0.517-1.236
		c0.247-0.455,0.59-0.926,1.026-1.411c0.438-0.486,1.01-0.931,1.717-1.332c0.974-0.554,1.957-0.867,2.95-0.94
		c0.993-0.074,1.937,0.034,2.83,0.324c0.893,0.29,1.7,0.732,2.421,1.327c0.722,0.594,1.303,1.28,1.744,2.057
		c0.54,0.95,0.883,1.918,1.027,2.901c0.146,0.983,0.103,1.928-0.127,2.832c-0.229,0.905-0.646,1.744-1.25,2.517
		c-0.604,0.772-1.381,1.429-2.332,1.969c-0.811,0.461-1.697,0.758-2.657,0.89s-1.874,0.014-2.741-0.352L203.66,67.666z"/>
	<path fill="#FFFFFF" d="M188.714,61.986c0.995-0.421,1.983-0.633,2.967-0.637c0.983-0.003,1.902,0.176,2.758,0.538
		c0.855,0.361,1.629,0.889,2.319,1.581c0.691,0.691,1.242,1.522,1.652,2.493c0.41,0.97,0.624,1.943,0.64,2.922
		c0.016,0.978-0.145,1.899-0.48,2.766s-0.847,1.65-1.534,2.354c-0.687,0.704-1.527,1.266-2.521,1.687
		c-0.995,0.421-1.983,0.633-2.967,0.637c-0.983,0.003-1.902-0.176-2.758-0.538s-1.628-0.889-2.319-1.581s-1.242-1.523-1.652-2.493
		s-0.624-1.943-0.64-2.922c-0.016-0.978,0.145-1.899,0.48-2.766s0.847-1.65,1.534-2.354
		C186.879,62.969,187.72,62.407,188.714,61.986z M189.416,63.643c-0.749,0.317-1.366,0.741-1.851,1.272
		c-0.485,0.53-0.844,1.12-1.076,1.769s-0.331,1.338-0.297,2.069s0.202,1.453,0.504,2.165c0.301,0.712,0.702,1.335,1.203,1.869
		c0.501,0.533,1.065,0.942,1.692,1.228c0.627,0.284,1.3,0.438,2.019,0.459c0.719,0.022,1.453-0.126,2.201-0.442
		c0.749-0.317,1.366-0.741,1.851-1.272c0.485-0.53,0.844-1.12,1.076-1.769s0.331-1.339,0.297-2.069
		c-0.034-0.731-0.202-1.453-0.504-2.165c-0.301-0.712-0.702-1.335-1.203-1.869c-0.501-0.533-1.064-0.942-1.692-1.228
		c-0.627-0.284-1.3-0.438-2.019-0.459C190.899,63.179,190.165,63.327,189.416,63.643z"/>
	<path fill="#FFFFFF" d="M182.174,79.92l-2.427-8.334c-0.123-0.423-0.309-0.845-0.556-1.265c-0.247-0.422-0.562-0.785-0.942-1.091
		s-0.824-0.517-1.33-0.633c-0.506-0.117-1.079-0.082-1.719,0.104c-0.641,0.187-1.143,0.465-1.507,0.834
		c-0.364,0.37-0.626,0.786-0.782,1.249c-0.157,0.462-0.228,0.938-0.21,1.426c0.017,0.487,0.087,0.942,0.21,1.365l2.427,8.334
		l-1.844,0.537l-2.511-8.622c-0.23-0.794-0.306-1.554-0.226-2.278c0.081-0.725,0.289-1.393,0.625-2.004
		c0.336-0.612,0.786-1.139,1.352-1.581c0.566-0.442,1.22-0.771,1.962-0.988c0.743-0.216,1.472-0.289,2.187-0.22
		s1.378,0.272,1.989,0.608s1.146,0.788,1.603,1.355c0.457,0.568,0.801,1.249,1.032,2.043l2.511,8.622L182.174,79.92z"/>
	<path fill="#FFFFFF" d="M169.052,83.509l-2.483,0.424l-9.65-10.159l-0.039,0.007l1.961,11.474l-1.893,0.324l-2.386-13.958
		l2.405-0.411l9.729,10.146l0.04-0.007l-1.962-11.474l1.893-0.323L169.052,83.509z"/>
	<path fill="#FFFFFF" d="M149.19,84.413l4.551-0.301l0.118,1.796l-11.016,0.729l-0.119-1.796l4.551-0.301l-0.816-12.333l1.916-0.127
		L149.19,84.413z"/>
	<path fill="#FFFFFF" d="M140.089,86.703l-4.938-0.158c-1-0.031-1.872-0.173-2.618-0.423c-0.746-0.251-1.389-0.575-1.93-0.973
		c-0.541-0.396-0.986-0.849-1.337-1.353c-0.351-0.505-0.625-1.021-0.821-1.547c-0.196-0.526-0.333-1.052-0.41-1.574
		s-0.108-1.004-0.094-1.443c0.029-0.907,0.224-1.777,0.583-2.613c0.36-0.836,0.877-1.572,1.551-2.212
		c0.674-0.639,1.501-1.143,2.479-1.512c0.979-0.369,2.102-0.533,3.368-0.493l4.618,0.147L140.089,86.703z M138.564,74.288
		l-2.419-0.077c-0.813-0.026-1.585,0.06-2.319,0.256c-0.733,0.197-1.38,0.507-1.94,0.929c-0.56,0.423-1.011,0.959-1.352,1.608
		c-0.341,0.649-0.525,1.414-0.553,2.293c-0.014,0.453,0.042,0.985,0.169,1.597c0.127,0.61,0.386,1.195,0.774,1.755
		c0.389,0.56,0.938,1.041,1.645,1.443c0.708,0.403,1.634,0.622,2.78,0.659l2.878,0.092L138.564,74.288z"/>
	<path fill="#FFFFFF" d="M119.482,70.621c1.068,0.161,2.022,0.498,2.861,1.009c0.84,0.512,1.53,1.145,2.069,1.9
		c0.54,0.756,0.923,1.609,1.15,2.562c0.228,0.951,0.262,1.947,0.104,2.989c-0.157,1.041-0.485,1.982-0.983,2.824
		c-0.498,0.842-1.116,1.544-1.855,2.106s-1.585,0.964-2.539,1.204s-1.964,0.279-3.032,0.118c-1.068-0.162-2.021-0.498-2.861-1.009
		c-0.84-0.512-1.529-1.146-2.069-1.901c-0.54-0.756-0.923-1.609-1.15-2.561s-0.262-1.948-0.104-2.989
		c0.158-1.041,0.485-1.983,0.983-2.824c0.499-0.842,1.117-1.544,1.855-2.106c0.74-0.563,1.585-0.964,2.539-1.204
		C117.404,70.499,118.414,70.46,119.482,70.621z M119.213,72.4c-0.804-0.121-1.551-0.082-2.242,0.116
		c-0.691,0.199-1.305,0.514-1.842,0.945c-0.537,0.432-0.982,0.968-1.335,1.608c-0.353,0.642-0.587,1.344-0.703,2.108
		s-0.099,1.506,0.048,2.223c0.148,0.717,0.415,1.36,0.8,1.932c0.386,0.57,0.879,1.053,1.48,1.447s1.304,0.652,2.108,0.773
		c0.804,0.122,1.552,0.083,2.243-0.116c0.691-0.198,1.305-0.514,1.842-0.944c0.538-0.432,0.982-0.968,1.335-1.609
		c0.353-0.641,0.587-1.344,0.703-2.108s0.1-1.505-0.048-2.222c-0.147-0.717-0.415-1.361-0.8-1.932
		c-0.386-0.571-0.879-1.053-1.48-1.447C120.72,72.78,120.017,72.522,119.213,72.4z"/>
	<path fill="#FFFFFF" d="M107.636,83.503l-1.918-0.564l0.196-11.743l-0.039-0.012l-6.393,9.918l-2.11-0.621l0.004-11.8l-0.038-0.011
		l-6.201,9.974l-1.918-0.564l7.953-12.419l1.957,0.576l0.015,12.055l0.038,0.012l6.528-10.129l1.957,0.577L107.636,83.503z"/>
	<path fill="#FFFFFF" d="M86.249,76.737l-2.301-1.028l-2.373-13.81l-0.037-0.016l-4.749,10.627l-1.753-0.783L80.815,58.8
		l2.228,0.995l2.446,13.842l0.036,0.017l4.749-10.627l1.753,0.783L86.249,76.737z"/>
	<path fill="#FFFFFF" d="M65.667,66.511l-4.2-2.677c-0.765-0.486-1.328-0.992-1.69-1.516c-0.362-0.523-0.584-1.036-0.667-1.54
		c-0.083-0.503-0.052-0.99,0.089-1.461c0.142-0.471,0.331-0.892,0.568-1.263c0.236-0.371,0.538-0.72,0.905-1.048
		c0.367-0.327,0.796-0.56,1.287-0.697c0.491-0.138,1.05-0.153,1.678-0.046c0.627,0.107,1.323,0.405,2.087,0.893l2.581,1.645
		l3.354-5.262l1.619,1.031L65.667,66.511z M67.401,60.217l-2.125-1.354c-0.315-0.2-0.643-0.374-0.984-0.521
		c-0.342-0.146-0.676-0.229-1.004-0.248s-0.646,0.051-0.953,0.211c-0.308,0.16-0.59,0.442-0.848,0.847
		c-0.258,0.405-0.395,0.78-0.41,1.126c-0.015,0.347,0.055,0.664,0.211,0.953s0.372,0.558,0.649,0.805
		c0.277,0.248,0.573,0.473,0.888,0.673l2.125,1.354L67.401,60.217z"/>
	<path fill="#FFFFFF" d="M52.673,57.673l-1.381-1.059l3.806-14.925l1.778,1.363l-1.002,3.642l5.349,4.101l3.241-1.926l1.777,1.363
		L52.673,57.673z M55.407,48.453l-1.86,6.765l0.032,0.024l6.082-3.527L55.407,48.453z"/>
	<path fill="#FFFFFF" d="M51.734,42.488c0.1-0.616,0.036-1.199-0.191-1.747c-0.228-0.549-0.551-1.018-0.971-1.408
		c-0.234-0.218-0.508-0.403-0.82-0.558c-0.312-0.153-0.637-0.25-0.973-0.29c-0.336-0.039-0.667-0.011-0.995,0.086
		c-0.326,0.097-0.621,0.287-0.885,0.57c-0.372,0.4-0.529,0.823-0.47,1.27c0.059,0.446,0.21,0.915,0.455,1.405
		c0.245,0.491,0.528,1.01,0.85,1.555s0.562,1.109,0.72,1.692c0.158,0.584,0.181,1.192,0.066,1.823
		c-0.113,0.632-0.483,1.284-1.11,1.958c-0.281,0.303-0.647,0.563-1.097,0.783c-0.449,0.22-0.947,0.339-1.494,0.359
		c-0.546,0.02-1.13-0.082-1.752-0.305c-0.621-0.222-1.245-0.624-1.87-1.205c-0.566-0.526-1.036-1.108-1.408-1.746
		c-0.372-0.637-0.531-1.377-0.477-2.218l2.109,0.021c-0.079,0.437-0.034,0.888,0.134,1.354s0.457,0.89,0.867,1.271
		c0.391,0.363,0.763,0.614,1.117,0.752s0.684,0.199,0.99,0.183c0.306-0.016,0.577-0.087,0.813-0.213
		c0.236-0.127,0.427-0.269,0.572-0.425c0.408-0.439,0.595-0.895,0.559-1.364c-0.036-0.471-0.174-0.954-0.414-1.45
		c-0.239-0.495-0.527-1.009-0.863-1.539c-0.335-0.53-0.593-1.075-0.774-1.635c-0.18-0.56-0.232-1.135-0.155-1.728
		c0.078-0.593,0.407-1.201,0.987-1.826c0.463-0.498,0.976-0.859,1.539-1.082c0.563-0.224,1.132-0.322,1.708-0.296
		c0.577,0.025,1.152,0.17,1.728,0.432s1.113,0.625,1.611,1.088c0.664,0.617,1.185,1.319,1.563,2.107s0.516,1.59,0.413,2.405
		L51.734,42.488z"/>
	<path fill="#FFFFFF" d="M43.773,34.837c0.151-0.606,0.136-1.192-0.045-1.758c-0.181-0.565-0.464-1.06-0.851-1.483
		c-0.215-0.237-0.472-0.445-0.771-0.624s-0.613-0.303-0.945-0.37c-0.332-0.067-0.665-0.066-0.998,0.003s-0.644,0.233-0.93,0.494
		c-0.404,0.368-0.595,0.776-0.574,1.226c0.021,0.449,0.134,0.93,0.336,1.438c0.203,0.51,0.441,1.05,0.717,1.62
		c0.275,0.569,0.467,1.152,0.576,1.747s0.081,1.202-0.085,1.822s-0.589,1.239-1.27,1.858c-0.306,0.278-0.691,0.508-1.158,0.689
		c-0.466,0.181-0.972,0.259-1.519,0.232c-0.546-0.025-1.12-0.175-1.72-0.448c-0.601-0.274-1.188-0.727-1.763-1.357
		c-0.521-0.571-0.939-1.191-1.258-1.857c-0.318-0.666-0.415-1.416-0.291-2.25l2.1,0.197c-0.114,0.429-0.107,0.882,0.021,1.36
		c0.129,0.478,0.381,0.924,0.758,1.338c0.359,0.395,0.709,0.676,1.051,0.843s0.665,0.255,0.971,0.265
		c0.307,0.01,0.583-0.039,0.828-0.146c0.246-0.105,0.448-0.231,0.605-0.375c0.444-0.403,0.667-0.841,0.671-1.313
		c0.003-0.472-0.094-0.964-0.292-1.479c-0.198-0.515-0.441-1.05-0.732-1.606c-0.29-0.556-0.501-1.12-0.635-1.693
		c-0.133-0.572-0.137-1.15-0.011-1.734c0.127-0.584,0.506-1.163,1.137-1.737c0.503-0.458,1.044-0.774,1.623-0.95
		c0.58-0.176,1.155-0.227,1.728-0.152c0.572,0.073,1.134,0.266,1.686,0.574c0.552,0.31,1.057,0.715,1.514,1.218
		c0.61,0.671,1.071,1.415,1.382,2.231c0.311,0.816,0.381,1.627,0.211,2.431L43.773,34.837z"/>
</g>
</svg>
