<?xml version="1.0" encoding="utf-8"?>
<!-- Generator: Adobe Illustrator 18.0.0, SVG Export Plug-In . SVG Version: 6.00 Build 0)  -->
<!DOCTYPE svg PUBLIC "-//W3C//DTD SVG 1.1//EN" "http://www.w3.org/Graphics/SVG/1.1/DTD/svg11.dtd">
<svg version="1.1" id="Layer_1" xmlns="http://www.w3.org/2000/svg" xmlns:xlink="http://www.w3.org/1999/xlink" x="0px" y="0px"
	 viewBox="0 0 211.131 137.616" enable-background="new 0 0 211.131 137.616" xml:space="preserve">
<path fill="#3FA9F5" stroke="#009EDF" stroke-width="2" stroke-miterlimit="10" d="M1.133,33.818l20.693,14.913l0,0
	c10.601-3.136,19.665-4.212,31.284-4.212c55.797,0,102.523,38.816,114.657,90.919l16.393-19.591l25.58,7.995
	C192.511,53.332,128.927,1,53.11,1C36.329,1,22.829,2.754,7.616,7.51L1.133,33.818z"/>
<g id="MS">
	<path fill="#FFFFFF" d="M26.8,21.375l2.826-0.438l6.089,9.904l0.079-0.012l2.765-11.277l2.827-0.438l2.169,13.993l-1.897,0.294
		l-1.783-11.503l-0.04,0.006l-2.94,12.235l-1.265,0.196l-6.507-10.771l-0.04,0.006l1.783,11.503l-1.897,0.294L26.8,21.375z"/>
	<path fill="#FFFFFF" d="M45.803,18.918l1.916-0.124l0.916,14.13l-1.916,0.124L45.803,18.918z"/>
	<path fill="#FFFFFF" d="M52.404,29.809c0.355,0.515,0.804,0.891,1.348,1.128c0.543,0.238,1.102,0.352,1.676,0.343
		c0.32-0.005,0.646-0.061,0.977-0.166c0.332-0.105,0.633-0.26,0.902-0.465c0.271-0.205,0.49-0.455,0.658-0.751
		c0.168-0.296,0.25-0.637,0.244-1.024c-0.01-0.546-0.189-0.96-0.541-1.241s-0.785-0.514-1.301-0.699
		c-0.517-0.185-1.08-0.362-1.689-0.533c-0.609-0.17-1.173-0.411-1.691-0.723c-0.519-0.312-0.956-0.734-1.311-1.269
		c-0.355-0.534-0.541-1.261-0.555-2.181c-0.007-0.413,0.076-0.854,0.249-1.324c0.172-0.469,0.449-0.9,0.829-1.293
		s0.872-0.724,1.474-0.994c0.602-0.27,1.33-0.412,2.184-0.425c0.773-0.013,1.514,0.082,2.225,0.284
		c0.711,0.202,1.338,0.625,1.881,1.27l-1.537,1.445c-0.246-0.369-0.59-0.664-1.033-0.883c-0.444-0.219-0.946-0.325-1.506-0.315
		c-0.533,0.008-0.977,0.085-1.326,0.231c-0.352,0.146-0.632,0.33-0.842,0.554c-0.21,0.223-0.356,0.462-0.438,0.717
		s-0.122,0.489-0.119,0.702c0.01,0.6,0.19,1.057,0.542,1.372c0.352,0.314,0.786,0.567,1.302,0.759
		c0.518,0.192,1.08,0.363,1.689,0.513c0.609,0.15,1.172,0.365,1.689,0.643c0.52,0.278,0.955,0.658,1.311,1.139
		c0.354,0.481,0.537,1.148,0.551,2.001c0.012,0.68-0.107,1.295-0.359,1.846s-0.594,1.017-1.027,1.396
		c-0.434,0.381-0.949,0.676-1.547,0.885c-0.596,0.21-1.234,0.32-1.914,0.331c-0.906,0.015-1.769-0.131-2.587-0.438
		s-1.473-0.79-1.964-1.448L52.404,29.809z"/>
	<path fill="#FFFFFF" d="M63.513,29.917c0.304,0.546,0.715,0.964,1.233,1.253c0.519,0.29,1.063,0.457,1.635,0.503
		c0.319,0.026,0.648,0.002,0.989-0.071c0.34-0.073,0.654-0.198,0.942-0.375c0.289-0.178,0.531-0.405,0.728-0.684
		c0.196-0.278,0.311-0.61,0.342-0.996c0.044-0.545-0.096-0.974-0.418-1.288c-0.323-0.314-0.732-0.587-1.229-0.822
		c-0.496-0.233-1.039-0.465-1.629-0.693c-0.591-0.229-1.129-0.522-1.614-0.883c-0.486-0.36-0.881-0.823-1.183-1.39
		c-0.302-0.566-0.416-1.308-0.342-2.225c0.033-0.412,0.158-0.843,0.375-1.294s0.533-0.853,0.95-1.208
		c0.416-0.354,0.938-0.637,1.563-0.847c0.625-0.21,1.363-0.281,2.214-0.213c0.771,0.063,1.5,0.229,2.188,0.498
		c0.687,0.27,1.27,0.751,1.749,1.445l-1.669,1.29c-0.209-0.391-0.524-0.717-0.944-0.979c-0.421-0.261-0.91-0.415-1.468-0.459
		c-0.532-0.043-0.979-0.009-1.343,0.103c-0.363,0.111-0.66,0.268-0.891,0.47s-0.399,0.426-0.506,0.671
		c-0.106,0.246-0.169,0.475-0.186,0.688c-0.049,0.598,0.087,1.07,0.407,1.417c0.319,0.347,0.728,0.64,1.224,0.881
		c0.495,0.241,1.039,0.465,1.631,0.673c0.592,0.208,1.132,0.476,1.62,0.803c0.489,0.328,0.887,0.747,1.193,1.26
		c0.306,0.513,0.425,1.195,0.356,2.045c-0.055,0.678-0.233,1.279-0.537,1.803c-0.303,0.524-0.688,0.955-1.157,1.291
		c-0.469,0.337-1.01,0.581-1.624,0.731c-0.614,0.151-1.26,0.2-1.938,0.145c-0.904-0.073-1.749-0.302-2.533-0.686
		c-0.785-0.384-1.391-0.928-1.815-1.631L63.513,29.917z"/>
	<path fill="#FFFFFF" d="M75.708,19.888l1.9,0.274l-2.023,14.015l-1.899-0.274L75.708,19.888z"/>
	<path fill="#FFFFFF" d="M85.128,36.374c-1.052-0.244-1.978-0.653-2.774-1.228c-0.798-0.575-1.437-1.259-1.916-2.055
		c-0.48-0.795-0.796-1.676-0.949-2.642c-0.152-0.966-0.11-1.962,0.128-2.988c0.237-1.026,0.637-1.939,1.198-2.74
		s1.232-1.453,2.013-1.957s1.655-0.838,2.624-1.004c0.97-0.166,1.98-0.127,3.032,0.117s1.977,0.653,2.774,1.228
		c0.798,0.574,1.437,1.26,1.916,2.055c0.479,0.795,0.796,1.676,0.949,2.642c0.152,0.966,0.11,1.962-0.127,2.988
		c-0.238,1.026-0.638,1.94-1.199,2.74c-0.562,0.801-1.232,1.453-2.013,1.957c-0.781,0.504-1.655,0.838-2.624,1.004
		C87.191,36.656,86.181,36.617,85.128,36.374z M85.534,34.62c0.792,0.184,1.54,0.203,2.244,0.058s1.341-0.411,1.91-0.8
		c0.568-0.388,1.054-0.889,1.456-1.5c0.401-0.612,0.689-1.294,0.863-2.048c0.175-0.753,0.216-1.493,0.124-2.219
		s-0.309-1.389-0.648-1.987c-0.341-0.599-0.795-1.118-1.364-1.558c-0.568-0.439-1.249-0.751-2.042-0.934
		c-0.792-0.184-1.54-0.203-2.244-0.058c-0.704,0.145-1.341,0.412-1.91,0.8c-0.569,0.389-1.054,0.889-1.455,1.5
		c-0.402,0.612-0.69,1.294-0.864,2.048c-0.175,0.753-0.216,1.493-0.124,2.219s0.308,1.389,0.648,1.987
		c0.341,0.599,0.795,1.118,1.364,1.558C84.061,34.124,84.741,34.436,85.534,34.62z"/>
	<path fill="#FFFFFF" d="M99.456,25.122l2.366,0.867l3.317,13.614l0.037,0.014l4.007-10.929l1.803,0.661l-4.874,13.295l-2.291-0.84
		l-3.392-13.641l-0.038-0.014l-4.006,10.929l-1.803-0.661L99.456,25.122z"/>
	<path fill="#FFFFFF" d="M127.93,41.39c-0.097-0.649-0.346-1.245-0.745-1.788c-0.4-0.542-0.886-0.973-1.457-1.291
		c-0.699-0.389-1.404-0.609-2.115-0.661s-1.394,0.038-2.048,0.269c-0.655,0.231-1.264,0.59-1.825,1.079s-1.036,1.083-1.425,1.782
		c-0.363,0.653-0.602,1.329-0.716,2.028c-0.114,0.7-0.097,1.38,0.054,2.043c0.149,0.664,0.438,1.282,0.867,1.855
		c0.429,0.574,1.004,1.062,1.727,1.464c0.711,0.395,1.415,0.596,2.113,0.603c0.697,0.007,1.379-0.148,2.044-0.465l0.822,1.854
		c-0.164,0.077-0.43,0.169-0.795,0.279c-0.366,0.109-0.808,0.176-1.325,0.201c-0.518,0.025-1.098-0.022-1.739-0.144
		c-0.643-0.121-1.319-0.378-2.03-0.773c-0.979-0.544-1.758-1.222-2.337-2.032c-0.579-0.81-0.978-1.672-1.193-2.586
		c-0.217-0.914-0.259-1.833-0.125-2.758c0.133-0.925,0.416-1.778,0.851-2.559c0.531-0.956,1.179-1.75,1.944-2.386
		c0.765-0.635,1.594-1.089,2.486-1.364c0.892-0.274,1.825-0.354,2.799-0.24s1.938,0.437,2.895,0.968
		c0.815,0.454,1.529,1.057,2.141,1.809s0.986,1.594,1.125,2.525L127.93,41.39z"/>
	<path fill="#FFFFFF" d="M130.873,57.127c-0.877-0.631-1.572-1.365-2.086-2.203c-0.515-0.838-0.84-1.716-0.975-2.635
		c-0.137-0.919-0.088-1.854,0.144-2.804s0.655-1.853,1.271-2.708c0.615-0.854,1.336-1.543,2.163-2.065
		c0.827-0.521,1.698-0.864,2.612-1.028s1.851-0.135,2.809,0.086s1.875,0.647,2.752,1.277c0.876,0.631,1.571,1.365,2.086,2.203
		c0.514,0.838,0.839,1.716,0.975,2.635s0.088,1.853-0.145,2.803c-0.231,0.95-0.655,1.853-1.27,2.708
		c-0.615,0.855-1.337,1.543-2.164,2.065s-1.697,0.865-2.611,1.028c-0.915,0.164-1.851,0.135-2.809-0.086
		S131.75,57.758,130.873,57.127z M131.924,55.666c0.66,0.475,1.344,0.781,2.049,0.919s1.396,0.138,2.07-0.001
		s1.315-0.413,1.922-0.823c0.606-0.409,1.136-0.928,1.588-1.556c0.451-0.627,0.774-1.294,0.97-2c0.195-0.706,0.252-1.4,0.169-2.084
		s-0.302-1.338-0.657-1.963s-0.863-1.175-1.523-1.65c-0.66-0.475-1.343-0.782-2.049-0.919c-0.705-0.138-1.396-0.138-2.07,0.001
		c-0.675,0.139-1.315,0.413-1.922,0.823s-1.136,0.928-1.587,1.556c-0.452,0.628-0.775,1.294-0.971,2
		c-0.195,0.705-0.252,1.4-0.168,2.083c0.082,0.684,0.302,1.338,0.657,1.963C130.756,54.641,131.264,55.191,131.924,55.666z"/>
	<path fill="#FFFFFF" d="M148.411,52.253l1.851,1.71l-2.17,13.843l0.029,0.027l7.899-8.549l1.41,1.303l-9.609,10.4l-1.793-1.656
		l2.112-13.897l-0.029-0.027l-7.899,8.549l-1.41-1.303L148.411,52.253z"/>
	<path fill="#FFFFFF" d="M161.258,67.463l-3.013-3.422l1.351-1.189l7.295,8.286l-1.351,1.189l-3.014-3.422l-9.277,8.167
		l-1.269-1.441L161.258,67.463z"/>
	<path fill="#FFFFFF" d="M168.704,73.48l2.944,4.016c0.536,0.731,0.879,1.406,1.026,2.025c0.148,0.619,0.17,1.178,0.064,1.677
		s-0.31,0.942-0.612,1.33c-0.303,0.387-0.632,0.711-0.986,0.971c-0.366,0.268-0.766,0.462-1.198,0.581
		c-0.434,0.12-0.876,0.159-1.327,0.118c-0.452-0.041-0.9-0.167-1.345-0.378c-0.444-0.212-0.846-0.517-1.204-0.915l-2.832,7.062
		l-1.419-1.936l2.902-6.593l-1.265-1.726l-5.032,3.69l-1.136-1.548L168.704,73.48z M164.808,78.718l1.49,2.032
		c0.221,0.301,0.464,0.582,0.729,0.842c0.266,0.26,0.547,0.458,0.846,0.595c0.299,0.136,0.62,0.186,0.965,0.148
		c0.344-0.038,0.71-0.198,1.097-0.482c0.388-0.284,0.65-0.584,0.79-0.901c0.14-0.317,0.188-0.639,0.148-0.964
		c-0.041-0.326-0.145-0.655-0.313-0.986s-0.363-0.647-0.584-0.948l-1.49-2.032L164.808,78.718z"/>
	<path fill="#FFFFFF" d="M167.177,97.238c-0.54-0.935-0.873-1.891-0.997-2.866c-0.125-0.975-0.06-1.909,0.194-2.803
		s0.682-1.726,1.283-2.497s1.358-1.42,2.271-1.947c0.911-0.526,1.852-0.858,2.82-0.994c0.969-0.136,1.903-0.091,2.804,0.136
		c0.901,0.227,1.742,0.637,2.525,1.232c0.782,0.595,1.443,1.36,1.983,2.295c0.54,0.936,0.873,1.891,0.997,2.866
		s0.06,1.91-0.194,2.803c-0.254,0.893-0.682,1.725-1.283,2.496c-0.603,0.771-1.359,1.42-2.271,1.947s-1.853,0.858-2.82,0.994
		c-0.969,0.136-1.903,0.09-2.804-0.136c-0.901-0.227-1.743-0.637-2.525-1.232S167.717,98.173,167.177,97.238z M168.736,96.337
		c0.406,0.705,0.903,1.265,1.489,1.68c0.587,0.416,1.216,0.699,1.889,0.85c0.672,0.151,1.368,0.164,2.09,0.04
		s1.417-0.379,2.087-0.766c0.669-0.387,1.238-0.861,1.706-1.424c0.468-0.563,0.805-1.173,1.01-1.831
		c0.205-0.657,0.274-1.344,0.208-2.06c-0.067-0.716-0.304-1.426-0.711-2.13c-0.406-0.705-0.903-1.265-1.49-1.68
		c-0.586-0.416-1.216-0.699-1.888-0.85s-1.369-0.164-2.09-0.04c-0.722,0.124-1.417,0.38-2.087,0.766
		c-0.67,0.387-1.238,0.862-1.706,1.424c-0.469,0.563-0.805,1.173-1.01,1.831c-0.206,0.658-0.275,1.344-0.208,2.06
		C168.092,94.923,168.328,95.633,168.736,96.337z"/>
	<path fill="#FFFFFF" d="M184.998,99.861l0.785,1.752l-11.279,5.056l2.659,5.931l-1.643,0.736l-3.444-7.684L184.998,99.861z"/>
</g>
</svg>
