<?xml version="1.0" encoding="utf-8"?>
<!-- Generator: Adobe Illustrator 18.0.0, SVG Export Plug-In . SVG Version: 6.00 Build 0)  -->
<!DOCTYPE svg PUBLIC "-//W3C//DTD SVG 1.1//EN" "http://www.w3.org/Graphics/SVG/1.1/DTD/svg11.dtd">
<svg version="1.1" id="Layer_1" xmlns="http://www.w3.org/2000/svg" xmlns:xlink="http://www.w3.org/1999/xlink" x="0px" y="0px"
	 viewBox="0 0 60.791 160.103" enable-background="new 0 0 60.791 160.103" xml:space="preserve">
<g>
	<path opacity="0.6" fill="#3FA9F5" d="M51.049,157.622l8.644-24.611l0,0c-10.597-17.67-15.174-35.738-15.174-57.843
		c0-19.475,4.733-37.842,13.104-54.022l-25.155,3.871L18.496,2.051C7.311,23.999,1,48.845,1,75.168
		c0,31.394,8.017,59.126,23.536,83.904l0,0L51.049,157.622z"/>
	<path fill="none" stroke="#009EDF" stroke-width="2" stroke-miterlimit="10" d="M51.049,157.622l8.644-24.611l0,0
		c-10.597-17.67-15.174-35.738-15.174-57.843c0-19.475,4.733-37.842,13.104-54.022l-25.155,3.871L18.496,2.051
		C7.311,23.999,1,48.845,1,75.168c0,31.394,8.017,59.126,23.536,83.904l0,0L51.049,157.622z"/>
</g>
<g id="REplay">
	<path fill="#FFFFFF" d="M38.009,142.678l2.128,4.033l-1.592,0.84l-5.152-9.764l1.592-0.841l2.128,4.033l10.932-5.768l0.896,1.698
		L38.009,142.678z"/>
	<path fill="#FFFFFF" d="M32.095,135.009l-0.722-1.778l5.448-2.213l-2.762-6.801l-5.448,2.213l-0.722-1.779l13.119-5.328
		l0.722,1.779l-6.003,2.438l2.762,6.801l6.004-2.438l0.722,1.778L32.095,135.009z"/>
	<path fill="#FFFFFF" d="M26.4,120.162l-2.55-8.777l1.729-0.502l2.014,6.933l4.052-1.177l-1.875-6.453l1.729-0.502l1.875,6.453
		l4.36-1.267l-2.115-7.279l1.729-0.502l2.65,9.122L26.4,120.162z"/>
	<path fill="#FFFFFF" d="M21.746,101.569l-0.733-4.926c-0.133-0.896-0.121-1.653,0.036-2.27c0.158-0.617,0.399-1.121,0.725-1.514
		c0.326-0.392,0.713-0.688,1.162-0.891c0.449-0.201,0.891-0.334,1.326-0.399c0.449-0.066,0.892-0.052,1.331,0.045
		s0.849,0.268,1.229,0.515c0.38,0.247,0.718,0.567,1.012,0.962c0.295,0.394,0.508,0.851,0.639,1.37l5.798-4.927l0.353,2.374
		l-5.642,4.479l0.314,2.116l6.172-0.918l0.283,1.899L21.746,101.569z M27.635,98.752l-0.371-2.492
		c-0.055-0.369-0.139-0.73-0.252-1.085c-0.113-0.354-0.27-0.66-0.471-0.921c-0.2-0.26-0.462-0.453-0.784-0.581
		c-0.322-0.127-0.721-0.155-1.196-0.085c-0.475,0.071-0.848,0.215-1.119,0.43c-0.271,0.216-0.465,0.478-0.581,0.784
		c-0.116,0.308-0.177,0.646-0.183,1.018c-0.005,0.372,0.02,0.742,0.075,1.111l0.371,2.492L27.635,98.752z"/>
	<path fill="#FFFFFF" d="M20.019,88.523l-0.51-9.126l1.797-0.101l0.402,7.209l4.213-0.235l-0.375-6.71l1.797-0.1l0.375,6.709
		l4.533-0.253l-0.422-7.568l1.797-0.101l0.53,9.485L20.019,88.523z"/>
	<path fill="#FFFFFF" d="M19.498,75.369l0.168-4.978c0.031-0.906,0.179-1.648,0.446-2.226c0.267-0.578,0.595-1.03,0.986-1.357
		c0.391-0.327,0.826-0.549,1.303-0.666s0.936-0.168,1.376-0.154c0.44,0.015,0.894,0.097,1.362,0.247
		c0.469,0.149,0.887,0.4,1.255,0.752c0.368,0.353,0.666,0.827,0.893,1.421s0.325,1.345,0.294,2.251l-0.104,3.059l6.236,0.211
		l-0.065,1.919L19.498,75.369z M25.799,73.661l0.085-2.519c0.013-0.373-0.005-0.744-0.052-1.112
		c-0.048-0.369-0.146-0.699-0.297-0.991s-0.372-0.529-0.666-0.713c-0.294-0.183-0.681-0.283-1.161-0.299
		c-0.48-0.016-0.873,0.057-1.178,0.22s-0.543,0.385-0.713,0.666c-0.17,0.281-0.291,0.604-0.363,0.968
		c-0.072,0.365-0.115,0.733-0.127,1.106l-0.085,2.519L25.799,73.661z"/>
	<path fill="#FFFFFF" d="M20.146,62.672l0.225-1.907l12.275,1.445l0.76-6.456l1.788,0.21l-0.984,8.362L20.146,62.672z"/>
	<path fill="#FFFFFF" d="M22.523,47.073l0.363-1.702l15.112-2.977l-0.467,2.191l-3.719,0.66l-1.404,6.592l3.131,2.099l-0.466,2.191
		L22.523,47.073z M32.023,45.58l-6.908,1.228l-0.008,0.039l5.799,3.976L32.023,45.58z"/>
	<path fill="#FFFFFF" d="M33.335,37.417l-9.338,2.732l0.724-2.351l7.081-1.858l-4.773-5.635l0.689-2.236l6.182,7.513l5.772,1.778
		l-0.565,1.835L33.335,37.417z"/>
</g>
</svg>
