<?xml version="1.0" encoding="utf-8"?>
<!-- Generator: Adobe Illustrator 18.0.0, SVG Export Plug-In . SVG Version: 6.00 Build 0)  -->
<!DOCTYPE svg PUBLIC "-//W3C//DTD SVG 1.1//EN" "http://www.w3.org/Graphics/SVG/1.1/DTD/svg11.dtd">
<svg version="1.1" id="Layer_1" xmlns="http://www.w3.org/2000/svg" xmlns:xlink="http://www.w3.org/1999/xlink" x="0px" y="0px"
	 viewBox="0 0 110.672 103.401" enable-background="new 0 0 110.672 103.401" xml:space="preserve">
<g>
	<path opacity="0.6" fill="#3FA9F5" d="M15.063,102.293l25.192-4.527c14.273-26.321,39.277-45.564,68.196-54.944l-21.16-14.775
		l6.454-26.539c-39.893,13.017-73.171,40.644-92.6,77.149L15.063,102.293z"/>
	<path fill="none" stroke="#009EDF" stroke-width="2" stroke-miterlimit="10" d="M15.063,102.293l25.192-4.527
		c14.273-26.321,39.277-45.564,68.196-54.944l-21.16-14.775l6.454-26.539c-39.893,13.017-73.171,40.644-92.6,77.149L15.063,102.293z
		"/>
</g>
<g id="REport">
	<path fill="#FFFFFF" d="M20.648,82.629l2.647-4.218c0.482-0.768,0.983-1.334,1.504-1.701c0.521-0.365,1.033-0.591,1.535-0.677
		c0.503-0.086,0.99-0.06,1.462,0.079s0.894,0.325,1.267,0.559c0.384,0.241,0.711,0.541,0.982,0.9s0.47,0.755,0.599,1.19
		c0.128,0.435,0.177,0.898,0.144,1.389c-0.033,0.491-0.168,0.977-0.406,1.457l7.608,0.029l-1.276,2.033L29.515,83.4l-1.138,1.813
		l5.285,3.317l-1.021,1.626L20.648,82.629z M26.954,84.32l1.339-2.135c0.198-0.316,0.37-0.645,0.514-0.988
		c0.144-0.342,0.224-0.677,0.241-1.005c0.017-0.328-0.056-0.645-0.218-0.951s-0.446-0.587-0.853-0.842
		c-0.407-0.255-0.783-0.389-1.129-0.402s-0.663,0.06-0.951,0.218s-0.555,0.376-0.8,0.654c-0.246,0.279-0.468,0.577-0.667,0.893
		l-1.339,2.134L26.954,84.32z"/>
	<path fill="#FFFFFF" d="M27.829,71.585l5.55-7.262l1.43,1.093l-4.384,5.736l3.353,2.563l4.081-5.339l1.43,1.093l-4.081,5.339
		l3.607,2.757l4.603-6.022l1.43,1.093l-5.769,7.548L27.829,71.585z"/>
	<path fill="#FFFFFF" d="M35.988,61.266l3.37-3.667c0.613-0.667,1.209-1.134,1.788-1.399s1.123-0.395,1.632-0.388
		s0.984,0.122,1.423,0.343c0.439,0.222,0.82,0.482,1.145,0.78c0.324,0.298,0.615,0.656,0.874,1.074s0.412,0.881,0.462,1.389
		s-0.033,1.061-0.248,1.66c-0.215,0.599-0.63,1.232-1.243,1.9l-2.07,2.253l4.595,4.222l-1.299,1.414L35.988,61.266z M41.882,64.074
		l1.705-1.856c0.252-0.275,0.481-0.567,0.685-0.878c0.204-0.31,0.344-0.625,0.42-0.945c0.076-0.319,0.062-0.644-0.042-0.975
		s-0.332-0.659-0.686-0.983s-0.699-0.524-1.038-0.6c-0.338-0.075-0.663-0.062-0.975,0.042c-0.312,0.103-0.614,0.269-0.906,0.498
		c-0.292,0.23-0.565,0.482-0.817,0.757l-1.705,1.855L41.882,64.074z"/>
	<path fill="#FFFFFF" d="M59.335,58.409c-0.812,0.713-1.683,1.226-2.615,1.538c-0.932,0.313-1.861,0.432-2.787,0.357
		c-0.926-0.074-1.826-0.331-2.699-0.771c-0.874-0.439-1.658-1.055-2.353-1.846c-0.695-0.792-1.204-1.648-1.527-2.572
		c-0.323-0.923-0.461-1.848-0.415-2.776c0.046-0.928,0.284-1.833,0.715-2.717c0.43-0.884,1.051-1.682,1.863-2.395
		c0.812-0.712,1.684-1.225,2.616-1.538c0.932-0.313,1.861-0.432,2.787-0.357c0.926,0.075,1.826,0.332,2.699,0.771
		c0.874,0.439,1.658,1.055,2.353,1.846c0.695,0.792,1.204,1.649,1.527,2.572s0.461,1.849,0.415,2.776
		c-0.046,0.928-0.285,1.833-0.715,2.717C60.768,56.898,60.147,57.696,59.335,58.409z M58.147,57.056
		c0.611-0.536,1.063-1.133,1.356-1.79c0.293-0.656,0.448-1.329,0.464-2.018c0.017-0.688-0.106-1.375-0.37-2.058
		c-0.263-0.683-0.649-1.315-1.159-1.896s-1.087-1.046-1.73-1.395c-0.644-0.349-1.308-0.56-1.993-0.632s-1.372-0.006-2.061,0.199
		c-0.689,0.206-1.339,0.577-1.95,1.113c-0.611,0.537-1.063,1.133-1.356,1.79c-0.293,0.657-0.448,1.33-0.464,2.018
		c-0.017,0.689,0.106,1.375,0.37,2.058c0.263,0.683,0.649,1.315,1.159,1.896c0.51,0.582,1.087,1.046,1.73,1.395
		c0.644,0.349,1.308,0.56,1.993,0.633s1.372,0.006,2.061-0.199S57.536,57.593,58.147,57.056z"/>
	<path fill="#FFFFFF" d="M58.444,40.37l4.076-2.862c0.742-0.521,1.424-0.849,2.046-0.984c0.622-0.135,1.181-0.145,1.678-0.03
		c0.497,0.116,0.936,0.329,1.316,0.64c0.381,0.311,0.698,0.646,0.951,1.006c0.261,0.371,0.446,0.774,0.556,1.21
		c0.11,0.436,0.141,0.879,0.091,1.33c-0.05,0.451-0.186,0.896-0.406,1.336c-0.221,0.44-0.534,0.835-0.939,1.185l7.002,2.977
		l-1.964,1.379l-6.532-3.038l-1.751,1.23l3.586,5.107l-1.572,1.103L58.444,40.37z M63.601,44.373l2.063-1.448
		c0.305-0.214,0.591-0.452,0.856-0.711s0.47-0.538,0.612-0.833c0.143-0.296,0.199-0.616,0.168-0.961
		c-0.031-0.345-0.184-0.714-0.459-1.107s-0.571-0.662-0.885-0.808c-0.314-0.146-0.635-0.202-0.961-0.168
		c-0.327,0.034-0.657,0.132-0.991,0.293c-0.335,0.162-0.655,0.35-0.96,0.564l-2.063,1.448L63.601,44.373z"/>
	<path fill="#FFFFFF" d="M72.482,33.26l-3.945,2.287l-0.902-1.557l9.552-5.536l0.902,1.558l-3.945,2.287l6.198,10.694l-1.661,0.962
		L72.482,33.26z"/>
</g>
</svg>
