<?xml version="1.0" encoding="utf-8"?>
<!-- Generator: Adobe Illustrator 18.0.0, SVG Export Plug-In . SVG Version: 6.00 Build 0)  -->
<!DOCTYPE svg PUBLIC "-//W3C//DTD SVG 1.1//EN" "http://www.w3.org/Graphics/SVG/1.1/DTD/svg11.dtd">
<svg version="1.1" id="Layer_1" xmlns="http://www.w3.org/2000/svg" xmlns:xlink="http://www.w3.org/1999/xlink" x="0px" y="0px"
	 viewBox="0 0 97.71 175.709" enable-background="new 0 0 97.71 175.709" xml:space="preserve">
<g>
	<path opacity="0.6" fill="#3FA9F5" d="M96.71,42.928c0-12.175-0.572-22.03-3.13-33.433L67.876,1.159L51.481,20.745
		c1.713,7.992,1.71,13.679,1.71,22.183c0,39.791-20.745,74.968-50.969,96.277l24.8,7.874l1.787,26.775
		C69.768,144.614,96.71,97.089,96.71,42.928z"/>
	<path fill="none" stroke="#009EDF" stroke-width="2" stroke-miterlimit="10" d="M96.71,42.928c0-12.175-0.572-22.03-3.13-33.433
		L67.876,1.159L51.481,20.745c1.713,7.992,1.71,13.679,1.71,22.183c0,39.791-20.745,74.968-50.969,96.277l24.8,7.874l1.787,26.775
		C69.768,144.614,96.71,97.089,96.71,42.928z"/>
</g>
<g id="SK">
	<path fill="#FFFFFF" d="M69.441,24.635c-0.472,0.411-0.795,0.899-0.971,1.466c-0.176,0.567-0.227,1.135-0.152,1.704
		c0.041,0.317,0.132,0.635,0.273,0.953c0.143,0.317,0.33,0.599,0.563,0.845c0.233,0.245,0.506,0.435,0.819,0.57
		c0.313,0.134,0.661,0.177,1.045,0.127c0.542-0.07,0.933-0.295,1.173-0.676s0.423-0.838,0.549-1.372s0.24-1.113,0.341-1.738
		c0.101-0.625,0.277-1.212,0.528-1.762c0.252-0.55,0.623-1.032,1.114-1.444c0.491-0.414,1.193-0.679,2.105-0.796
		c0.41-0.053,0.857-0.02,1.344,0.099c0.485,0.119,0.945,0.345,1.378,0.679c0.434,0.334,0.817,0.785,1.153,1.354
		c0.335,0.568,0.558,1.276,0.667,2.122c0.099,0.767,0.088,1.514-0.033,2.243c-0.121,0.728-0.472,1.398-1.051,2.011l-1.608-1.365
		c0.34-0.286,0.594-0.662,0.762-1.127c0.169-0.465,0.218-0.976,0.146-1.531c-0.068-0.529-0.194-0.96-0.379-1.292
		c-0.184-0.333-0.398-0.591-0.644-0.774c-0.246-0.184-0.5-0.302-0.763-0.355c-0.262-0.054-0.499-0.066-0.71-0.039
		c-0.596,0.077-1.029,0.307-1.303,0.692c-0.272,0.385-0.476,0.844-0.608,1.379s-0.239,1.113-0.32,1.735s-0.23,1.206-0.449,1.752
		s-0.547,1.022-0.985,1.428c-0.438,0.406-1.081,0.664-1.927,0.773c-0.675,0.087-1.3,0.037-1.875-0.151
		c-0.575-0.188-1.076-0.476-1.503-0.865s-0.777-0.868-1.053-1.437s-0.456-1.191-0.543-1.866c-0.116-0.899-0.068-1.773,0.146-2.621
		c0.213-0.848,0.619-1.552,1.219-2.113L69.441,24.635z"/>
	<path fill="#FFFFFF" d="M81.874,34.764l0.073,1.918l-6.115,0.232l0.006,0.16l6.354,6.023l0.102,2.678l-6.795-6.587l-7.338,7.583
		l-0.106-2.797l6.824-6.864l-0.006-0.16l-7.075,0.269l-0.072-1.918L81.874,34.764z"/>
	<path fill="#FFFFFF" d="M82.17,48.685l-0.508,9.126l-1.797-0.1l0.4-7.209l-4.213-0.234l-0.374,6.71l-1.797-0.101l0.373-6.709
		l-4.532-0.253l-0.422,7.568l-1.797-0.1l0.527-9.485L82.17,48.685z"/>
	<path fill="#FFFFFF" d="M81.213,61.752l-0.27,1.9L68.705,61.92l-0.911,6.437l-1.782-0.253l1.181-8.337L81.213,61.752z"/>
	<path fill="#FFFFFF" d="M79.477,72.905l-2.053,8.906l-1.754-0.404l1.621-7.035l-4.111-0.947l-1.51,6.548l-1.754-0.404l1.509-6.548
		l-4.424-1.02l-1.702,7.387l-1.754-0.404l2.134-9.258L79.477,72.905z"/>
	<path fill="#FFFFFF" d="M73.676,87.919l1.42-4.334l1.711,0.561l-3.438,10.491l-1.711-0.561l1.42-4.333l-11.745-3.849l0.598-1.825
		L73.676,87.919z"/>
	<path fill="#FFFFFF" d="M71.25,99.729l-0.677,1.603L55.171,101.4l0.872-2.063l3.776,0.056l2.625-6.208l-2.679-2.652l0.872-2.063
		L71.25,99.729z M61.64,99.401l7.015,0.1l0.016-0.037l-4.943-4.999L61.64,99.401z"/>
	<path fill="#FFFFFF" d="M66.852,109.365l-0.908,1.691l-10.891-5.847l-3.074,5.727l-1.586-0.851l3.982-7.419L66.852,109.365z"/>
	<path fill="#FFFFFF" d="M48.783,118.095c-0.625-0.018-1.194,0.123-1.707,0.422c-0.514,0.298-0.936,0.681-1.267,1.149
		c-0.186,0.261-0.333,0.557-0.444,0.886c-0.11,0.33-0.163,0.664-0.158,1.003c0.006,0.339,0.078,0.664,0.217,0.975
		c0.14,0.311,0.367,0.578,0.683,0.802c0.446,0.315,0.887,0.415,1.32,0.298c0.435-0.118,0.879-0.33,1.333-0.638
		c0.455-0.308,0.931-0.656,1.428-1.048c0.498-0.391,1.025-0.704,1.583-0.938c0.558-0.234,1.157-0.337,1.798-0.308
		c0.642,0.028,1.338,0.309,2.089,0.841c0.337,0.238,0.644,0.566,0.921,0.982c0.277,0.417,0.462,0.895,0.554,1.434
		c0.093,0.539,0.069,1.131-0.069,1.776c-0.138,0.646-0.453,1.316-0.946,2.013c-0.447,0.632-0.962,1.174-1.544,1.628
		c-0.582,0.453-1.294,0.709-2.136,0.767l-0.258-2.094c0.443,0.02,0.885-0.084,1.324-0.312c0.438-0.229,0.82-0.57,1.144-1.027
		c0.309-0.436,0.508-0.838,0.598-1.207c0.09-0.37,0.106-0.705,0.05-1.006c-0.057-0.302-0.163-0.561-0.319-0.777
		c-0.157-0.218-0.322-0.388-0.496-0.511c-0.49-0.347-0.966-0.472-1.427-0.373c-0.462,0.098-0.923,0.299-1.382,0.603
		c-0.46,0.303-0.931,0.656-1.412,1.06c-0.48,0.402-0.986,0.73-1.517,0.983c-0.531,0.254-1.095,0.381-1.692,0.383
		s-1.245-0.243-1.941-0.736c-0.555-0.393-0.98-0.854-1.276-1.381c-0.296-0.528-0.47-1.08-0.52-1.654
		c-0.051-0.575,0.016-1.165,0.199-1.771c0.183-0.605,0.471-1.186,0.864-1.74c0.523-0.74,1.151-1.351,1.882-1.829
		c0.731-0.479,1.508-0.722,2.329-0.729L48.783,118.095z"/>
	<path fill="#FFFFFF" d="M42.726,131.228l9.659,1.168l-1.592,1.875l-7.24-1.082l2.167,7.06l-1.514,1.784l-2.723-9.341l-4.604-3.909
		l1.242-1.464L42.726,131.228z"/>
	<path fill="#FFFFFF" d="M34.227,136.144c-0.611-0.126-1.196-0.087-1.754,0.117c-0.558,0.203-1.04,0.507-1.448,0.91
		c-0.228,0.225-0.425,0.49-0.592,0.795c-0.167,0.306-0.277,0.626-0.331,0.96s-0.04,0.667,0.043,0.997s0.26,0.634,0.532,0.908
		c0.384,0.39,0.8,0.563,1.248,0.524c0.448-0.04,0.923-0.172,1.424-0.395c0.501-0.224,1.03-0.484,1.589-0.782
		s1.132-0.514,1.722-0.646c0.591-0.134,1.199-0.13,1.825,0.011s1.262,0.538,1.908,1.192c0.291,0.294,0.536,0.671,0.736,1.129
		c0.199,0.459,0.298,0.961,0.294,1.508c-0.003,0.547-0.129,1.126-0.378,1.737s-0.677,1.217-1.284,1.816
		c-0.55,0.544-1.151,0.987-1.804,1.333c-0.653,0.345-1.398,0.472-2.237,0.382l0.112-2.106c0.433,0.097,0.886,0.071,1.357-0.076
		c0.473-0.148,0.908-0.419,1.307-0.813c0.38-0.375,0.646-0.736,0.799-1.084c0.152-0.348,0.228-0.676,0.225-0.981
		c-0.002-0.307-0.063-0.581-0.179-0.821c-0.116-0.241-0.249-0.438-0.399-0.59c-0.422-0.427-0.868-0.632-1.34-0.616
		c-0.471,0.016-0.96,0.133-1.466,0.352s-1.03,0.484-1.574,0.797s-1.1,0.547-1.666,0.704c-0.567,0.156-1.145,0.184-1.733,0.081
		s-1.183-0.458-1.782-1.064c-0.478-0.484-0.816-1.012-1.016-1.583c-0.199-0.572-0.273-1.146-0.223-1.72
		c0.051-0.575,0.219-1.145,0.505-1.708c0.287-0.564,0.672-1.085,1.155-1.563c0.646-0.637,1.37-1.128,2.173-1.472
		c0.804-0.344,1.61-0.447,2.421-0.31L34.227,136.144z"/>
</g>
</svg>
