<?xml version="1.0" encoding="utf-8"?>
<!-- Generator: Adobe Illustrator 18.0.0, SVG Export Plug-In . SVG Version: 6.00 Build 0)  -->
<!DOCTYPE svg PUBLIC "-//W3C//DTD SVG 1.1//EN" "http://www.w3.org/Graphics/SVG/1.1/DTD/svg11.dtd">
<svg version="1.1" id="Layer_1" xmlns="http://www.w3.org/2000/svg" xmlns:xlink="http://www.w3.org/1999/xlink" x="0px" y="0px"
	 viewBox="0 0 58 67" enable-background="new 0 0 58 67" xml:space="preserve">
<polygon fill="none" stroke="#3FA9F5" stroke-width="2" stroke-linecap="round" stroke-linejoin="round" stroke-miterlimit="10" points="
	57,49.6 29,65.8 1,49.6 1,17.4 29,1.2 57,17.4 "/>
<g>
	<path fill="#404041" stroke="#009EDF" stroke-miterlimit="10" d="M41.3,22.4c1.2,0,2.1-0.9,2.1-2.1c0-1.1-0.9-2.1-2.1-2.1
		c-1.2,0-2.1,0.9-2.1,2.1c0,0.4,0.2,0.8,0.4,1.1l-10.4,6.9L19.8,19c-0.6-0.6-1.6-0.8-2.4-0.5c-0.8,0.3-1.3,1.1-1.3,2
		c0,6.2,2.3,12.3,6.9,17c4.6,4.6,10.8,6.9,17,6.9c0.9,0,1.7-0.5,2-1.3c0.3-0.8,0.2-1.7-0.5-2.4l-8.3-8.3L40.1,22
		C40.5,22.2,40.8,22.4,41.3,22.4z"/>
	<path fill="#404041" stroke="#009EDF" stroke-miterlimit="10" d="M26.7,44.1c-0.1-0.3-0.3-0.5-0.5-0.6c-1.9-1-3.7-2.3-5.2-3.9
		l-0.1,0l-0.1,0L15.1,50c-0.2,0.3-0.2,0.7,0,1c0.2,0.3,0.5,0.5,0.9,0.5h11.4c0.3,0,0.6-0.2,0.8-0.4c0.2-0.3,0.3-0.6,0.2-0.9
		L26.7,44.1z"/>
</g>
</svg>
