<?xml version="1.0" encoding="utf-8"?>
<!-- Generator: Adobe Illustrator 18.0.0, SVG Export Plug-In . SVG Version: 6.00 Build 0)  -->
<!DOCTYPE svg PUBLIC "-//W3C//DTD SVG 1.1//EN" "http://www.w3.org/Graphics/SVG/1.1/DTD/svg11.dtd">
<svg version="1.1" id="Layer_1" xmlns="http://www.w3.org/2000/svg" xmlns:xlink="http://www.w3.org/1999/xlink" x="0px" y="0px"
	 viewBox="0 0 57.918 66.566" enable-background="new 0 0 57.918 66.566" xml:space="preserve">
<polygon fill="none" stroke="#F0592B" stroke-width="2" stroke-linecap="round" stroke-linejoin="round" stroke-miterlimit="10" points="
	56.918,49.424 28.959,65.566 1,49.424 1,17.141 28.959,1 56.918,17.141 "/>
<path fill="#404041" stroke="#F0592B" stroke-miterlimit="10" d="M36.018,46.346H33.84V28.924h-4.356v17.422h-2.178V28.924h-4.355
	v17.422h-2.178V28.924h-4.356v20.689c0,0.6,0.488,1.088,1.088,1.088h21.779c0.6,0,1.09-0.488,1.09-1.088V28.924h-4.357V46.346z"/>
<path fill="#404041" stroke="#F0592B" stroke-miterlimit="10" d="M43.864,22.609l-8.274-2.732l1.024-3.101
	c0.187-0.566-0.122-1.188-0.691-1.376l-8.272-2.731c-0.571-0.189-1.19,0.128-1.377,0.693l-1.024,3.101l-8.272-2.731
	c-1.139-0.376-2.376,0.25-2.751,1.385l-0.683,2.07c-0.376,1.139,0.246,2.375,1.385,2.751l26.885,8.877
	c1.135,0.375,2.375-0.246,2.751-1.385l0.683-2.07C45.624,24.225,44.999,22.984,43.864,22.609z M27.319,17.146l0.683-2.068
	l6.204,2.048l-0.683,2.068L27.319,17.146z"/>
</svg>
