<?xml version="1.0" encoding="utf-8"?>
<!-- Generator: Adobe Illustrator 18.0.0, SVG Export Plug-In . SVG Version: 6.00 Build 0)  -->
<!DOCTYPE svg PUBLIC "-//W3C//DTD SVG 1.1//EN" "http://www.w3.org/Graphics/SVG/1.1/DTD/svg11.dtd">
<svg version="1.1" id="Layer_1" xmlns="http://www.w3.org/2000/svg" xmlns:xlink="http://www.w3.org/1999/xlink" x="0px" y="0px"
	 viewBox="0 0 57.918 66.566" enable-background="new 0 0 57.918 66.566" xml:space="preserve">
<path fill="#404041" stroke="#3FA9F5" stroke-miterlimit="10" d="M36.018,46.346H33.84V28.924h-4.356v17.422h-2.178V28.924h-4.355
	v17.422h-2.178V28.924h-4.356v20.689c0,0.6,0.488,1.088,1.088,1.088h21.779c0.6,0,1.09-0.488,1.09-1.088V28.924h-4.357V46.346z"/>
<path fill="#404041" stroke="#3FA9F5" stroke-miterlimit="10" d="M42.553,20.211H33.84v-3.266c0-0.596-0.488-1.09-1.088-1.09h-8.711
	c-0.601,0-1.09,0.494-1.09,1.09v3.266H14.24c-1.199,0-2.178,0.982-2.178,2.178v2.18c0,1.199,0.979,2.178,2.178,2.178h28.313
	c1.195,0,2.178-0.979,2.178-2.178v-2.18C44.73,21.193,43.748,20.211,42.553,20.211z M25.129,20.211v-2.178h6.533v2.178H25.129z"/>
<polygon fill="none" stroke="#3FA9F5" stroke-width="2" stroke-linecap="round" stroke-linejoin="round" stroke-miterlimit="10" points="
	56.918,49.424 28.959,65.566 1,49.424 1,17.141 28.959,1 56.918,17.141 "/>
</svg>
