<?xml version="1.0" encoding="utf-8"?>
<!-- Generator: Adobe Illustrator 18.0.0, SVG Export Plug-In . SVG Version: 6.00 Build 0)  -->
<!DOCTYPE svg PUBLIC "-//W3C//DTD SVG 1.1//EN" "http://www.w3.org/Graphics/SVG/1.1/DTD/svg11.dtd">
<svg version="1.1" id="Layer_1" xmlns="http://www.w3.org/2000/svg" xmlns:xlink="http://www.w3.org/1999/xlink" x="0px" y="0px"
	 viewBox="0 0 70 23" enable-background="new 0 0 70 23" xml:space="preserve">
<g>
	<path fill="none" stroke="#009DCC" stroke-miterlimit="10" d="M0.9,3.8h4.8c0.6,0,1.1,0,1.7,0.1C7.9,4,8.4,4.2,8.8,4.4
		c0.4,0.2,0.8,0.6,1.1,1c0.3,0.4,0.4,1,0.4,1.7c0,0.7-0.2,1.3-0.6,1.8c-0.4,0.5-0.9,0.8-1.6,1v0c0.4,0.1,0.8,0.2,1.1,0.4
		c0.3,0.2,0.6,0.4,0.9,0.7s0.4,0.6,0.6,0.9c0.1,0.4,0.2,0.7,0.2,1.2c0,0.7-0.1,1.2-0.4,1.7c-0.3,0.4-0.7,0.8-1.1,1.1
		c-0.5,0.3-1,0.5-1.5,0.6c-0.6,0.1-1.1,0.2-1.7,0.2H0.9V3.8z M3.7,8.9h2c0.2,0,0.4,0,0.6-0.1c0.2,0,0.4-0.1,0.6-0.2
		c0.2-0.1,0.3-0.3,0.4-0.4C7.5,8,7.5,7.8,7.5,7.5c0-0.3-0.1-0.5-0.2-0.7C7.2,6.7,7.1,6.6,6.9,6.5C6.7,6.4,6.5,6.3,6.3,6.3
		c-0.2,0-0.5-0.1-0.7-0.1H3.7V8.9z M3.7,14.2h2.5c0.2,0,0.4,0,0.7-0.1c0.2,0,0.4-0.1,0.6-0.3c0.2-0.1,0.3-0.3,0.4-0.5
		c0.1-0.2,0.2-0.4,0.2-0.7c0-0.3-0.1-0.5-0.2-0.7c-0.2-0.2-0.3-0.3-0.6-0.4c-0.2-0.1-0.5-0.2-0.7-0.2c-0.3,0-0.5-0.1-0.7-0.1H3.7
		V14.2z"/>
	<path fill="none" stroke="#009DCC" stroke-miterlimit="10" d="M17.3,18c-0.2,0.5-0.4,0.9-0.5,1.2c-0.2,0.4-0.4,0.7-0.6,0.9
		s-0.6,0.4-1,0.6c-0.4,0.1-0.9,0.2-1.6,0.2c-0.7,0-1.4-0.1-2-0.3l0.4-2.2c0.4,0.2,0.8,0.3,1.3,0.3c0.3,0,0.5,0,0.7-0.1
		c0.2-0.1,0.4-0.2,0.5-0.3s0.2-0.3,0.3-0.5c0.1-0.2,0.2-0.4,0.3-0.6l0.2-0.5l-3.8-8.8h2.9l2.3,5.8h0l1.9-5.8h2.8L17.3,18z"/>
	<path fill="none" stroke="#009DCC" stroke-miterlimit="10" d="M27.9,3.8h4.2l2.9,8.3h0l3-8.3h4.2v12.7h-2.8V6.8h0l-3.3,9.8H34
		l-3.2-9.8h0v9.8h-2.8V3.8z"/>
	<path fill="none" stroke="#009DCC" stroke-miterlimit="10" d="M53.2,7.1c-0.3-0.3-0.6-0.6-1-0.8s-0.9-0.3-1.4-0.3
		c-0.5,0-1,0.1-1.5,0.3s-0.8,0.5-1.2,0.9c-0.3,0.4-0.6,0.8-0.8,1.3c-0.2,0.5-0.3,1-0.3,1.6c0,0.6,0.1,1.1,0.3,1.6
		c0.2,0.5,0.4,0.9,0.8,1.3s0.7,0.7,1.1,0.9c0.4,0.2,0.9,0.3,1.4,0.3c0.6,0,1.1-0.1,1.5-0.4c0.4-0.2,0.8-0.6,1.1-1l2.3,1.7
		c-0.5,0.8-1.2,1.3-2.1,1.7s-1.7,0.5-2.6,0.5c-1,0-1.9-0.2-2.8-0.5c-0.8-0.3-1.6-0.8-2.2-1.3c-0.6-0.6-1.1-1.3-1.4-2.1
		s-0.5-1.8-0.5-2.8c0-1,0.2-1.9,0.5-2.8s0.8-1.5,1.4-2.1c0.6-0.6,1.3-1,2.2-1.3c0.8-0.3,1.8-0.5,2.8-0.5c0.4,0,0.7,0,1.1,0.1
		c0.4,0.1,0.8,0.2,1.2,0.3s0.7,0.3,1.1,0.6c0.3,0.2,0.7,0.5,0.9,0.9L53.2,7.1z"/>
	<path fill="none" stroke="#009DCC" stroke-miterlimit="10" d="M57.2,3.8h4.2c1,0,2,0.1,2.9,0.3s1.7,0.6,2.4,1.1
		c0.7,0.5,1.2,1.2,1.6,2c0.4,0.8,0.6,1.8,0.6,3c0,1-0.2,1.9-0.6,2.7c-0.4,0.8-0.9,1.4-1.6,2c-0.7,0.5-1.4,0.9-2.3,1.2
		c-0.9,0.3-1.8,0.4-2.7,0.4h-4.6V3.8z M60,14h1.5c0.6,0,1.3-0.1,1.8-0.2c0.6-0.1,1-0.4,1.4-0.7c0.4-0.3,0.7-0.7,1-1.2
		c0.2-0.5,0.4-1.1,0.4-1.8c0-0.6-0.1-1.2-0.4-1.6s-0.5-0.8-0.9-1.1c-0.4-0.3-0.9-0.5-1.4-0.7c-0.5-0.2-1.1-0.2-1.7-0.2H60V14z"/>
</g>
</svg>
