<?xml version="1.0" encoding="utf-8"?>
<!-- Generator: Adobe Illustrator 18.0.0, SVG Export Plug-In . SVG Version: 6.00 Build 0)  -->
<!DOCTYPE svg PUBLIC "-//W3C//DTD SVG 1.1//EN" "http://www.w3.org/Graphics/SVG/1.1/DTD/svg11.dtd">
<svg version="1.1" id="Layer_1" xmlns="http://www.w3.org/2000/svg" xmlns:xlink="http://www.w3.org/1999/xlink" x="0px" y="0px"
	 viewBox="0 0 1013 837" enable-background="new 0 0 1013 837" xml:space="preserve">
<text transform="matrix(0.9711 0 0 1 48.5 138.2368)" fill="#3FA9F5" font-family="'Avenir" font-size="22" letter-spacing="1">COMMAND LIST</text>
<polygon fill="none" stroke="#009EDF" stroke-miterlimit="10" points="1012.5,836.5 0.5,836.5 0.5,19.7 20,0.5 999.8,0.5 
	1012.5,12.3 "/>
<g>
	<polygon opacity="0.4" fill="#3399CC" points="329,40 19,40 19,23.3 27.7,16 320.5,16 329,23.2 	"/>
	<polygon fill="none" stroke="#009EDF" stroke-miterlimit="10" points="328.5,40.5 18.5,40.5 18.5,23.3 27.7,16.5 320.5,16.5 
		328.5,23.2 	"/>
</g>
<g>
	<polygon opacity="0.4" fill="#3399CC" points="977,156 342,156 342,66.5 369,41 977,41 	"/>
	<polygon fill="none" stroke="#009EDF" stroke-miterlimit="10" points="977.5,155.5 342.5,155.5 342.5,66.5 369,40.5 977.5,40.5 	
		"/>
</g>
<g>
	<rect x="19" y="46" opacity="0.4" fill="#3399CC" width="310" height="30"/>
	<rect x="18.5" y="46.5" fill="none" stroke="#009EDF" stroke-miterlimit="10" width="310" height="30"/>
</g>
<text transform="matrix(1 0 0 1 368.833 28)" fill="#FFFFFF" font-family="'Avenir'" font-size="20">INFORMATION</text>
</svg>
