<?xml version="1.0" encoding="utf-8"?>
<!-- Generator: Adobe Illustrator 18.0.0, SVG Export Plug-In . SVG Version: 6.00 Build 0)  -->
<!DOCTYPE svg PUBLIC "-//W3C//DTD SVG 1.1//EN" "http://www.w3.org/Graphics/SVG/1.1/DTD/svg11.dtd">
<svg version="1.1" id="Layer_1" xmlns="http://www.w3.org/2000/svg" xmlns:xlink="http://www.w3.org/1999/xlink" x="0px" y="0px"
	 viewBox="0 0 249 50" enable-background="new 0 0 249 50" xml:space="preserve">
<g>
	<path fill="none" stroke="#245FF1" stroke-miterlimit="10" d="M1.4,25.1c0-2.3,0.4-4.3,1.1-6.2c0.8-1.8,1.8-3.4,3.2-4.7
		c1.4-1.3,3-2.3,4.8-3c1.9-0.7,3.9-1,6.1-1c2.2,0,4.3,0.3,6.1,1c1.9,0.7,3.5,1.7,4.8,3c1.4,1.3,2.4,2.9,3.2,4.7
		c0.8,1.8,1.1,3.9,1.1,6.2c0,2.3-0.4,4.3-1.1,6.2s-1.8,3.4-3.2,4.7c-1.4,1.3-3,2.3-4.8,3c-1.9,0.7-3.9,1-6.1,1c-2.2,0-4.3-0.3-6.1-1
		c-1.9-0.7-3.5-1.7-4.8-3c-1.4-1.3-2.4-2.9-3.2-4.7S1.4,27.3,1.4,25.1z M7.8,25.1c0,1.3,0.2,2.6,0.6,3.7s1,2.1,1.8,2.9
		s1.7,1.4,2.8,1.9c1.1,0.5,2.3,0.7,3.6,0.7c1.3,0,2.5-0.2,3.6-0.7c1.1-0.5,2-1.1,2.8-1.9s1.4-1.8,1.8-2.9c0.4-1.1,0.6-2.3,0.6-3.7
		c0-1.3-0.2-2.5-0.6-3.6c-0.4-1.1-1-2.1-1.8-2.9c-0.8-0.8-1.7-1.4-2.8-1.9c-1.1-0.5-2.3-0.7-3.6-0.7c-1.3,0-2.5,0.2-3.6,0.7
		c-1.1,0.5-2,1.1-2.8,1.9c-0.8,0.8-1.4,1.8-1.8,2.9C8,22.5,7.8,23.8,7.8,25.1z"/>
	<path fill="none" stroke="#245FF1" stroke-miterlimit="10" d="M40.2,10.9h10.5c1.5,0,2.9,0.1,4.2,0.4c1.3,0.3,2.4,0.7,3.4,1.4
		c1,0.7,1.7,1.5,2.3,2.6c0.6,1.1,0.9,2.5,0.9,4.2c0,1.7-0.3,3-0.8,4.2c-0.5,1.1-1.3,2-2.2,2.7c-0.9,0.7-2,1.1-3.3,1.4
		c-1.3,0.3-2.7,0.4-4.2,0.4h-4.6v11h-6.2V10.9z M46.4,22.9h4.2c0.6,0,1.1-0.1,1.6-0.2c0.5-0.1,1-0.3,1.4-0.5c0.4-0.3,0.7-0.6,1-1
		c0.3-0.4,0.4-1,0.4-1.7c0-0.7-0.2-1.3-0.5-1.7c-0.3-0.4-0.8-0.8-1.3-1c-0.5-0.2-1.1-0.4-1.7-0.5c-0.6-0.1-1.3-0.1-1.8-0.1h-3.2
		V22.9z"/>
	<path fill="none" stroke="#245FF1" stroke-miterlimit="10" d="M69.6,10.9h19.2v5.8h-13v5.3h12.3v5.8H75.8v5.8h13.7v5.8h-20V10.9z"
		/>
	<path fill="none" stroke="#245FF1" stroke-miterlimit="10" d="M98.6,10.9h11c1.4,0,2.8,0.1,4.1,0.4c1.3,0.3,2.4,0.7,3.4,1.4
		c1,0.7,1.7,1.5,2.3,2.6c0.6,1.1,0.9,2.5,0.9,4.1c0,2-0.5,3.7-1.6,5.1c-1,1.4-2.6,2.3-4.6,2.7l7.2,12h-7.5l-5.9-11.3h-3.1v11.3h-6.2
		V10.9z M104.8,22.6h3.7c0.6,0,1.2,0,1.8-0.1c0.6,0,1.2-0.2,1.7-0.4c0.5-0.2,0.9-0.5,1.3-0.9c0.3-0.4,0.5-1,0.5-1.8
		c0-0.7-0.1-1.3-0.4-1.7c-0.3-0.4-0.7-0.8-1.1-1c-0.5-0.2-1-0.4-1.6-0.5s-1.2-0.1-1.7-0.1h-4.1V22.6z"/>
	<path fill="none" stroke="#245FF1" stroke-miterlimit="10" d="M137.8,10.9h5.2l12.3,28.3h-7l-2.4-6h-11l-2.4,6h-6.9L137.8,10.9z
		 M140.2,19.1l-3.4,8.8h6.9L140.2,19.1z"/>
	<path fill="none" stroke="#245FF1" stroke-miterlimit="10" d="M163.9,16.4h-8.1v-5.5h22.4v5.5h-8.1v22.8h-6.2V16.4z"/>
	<path fill="none" stroke="#245FF1" stroke-miterlimit="10" d="M183.9,25.1c0-2.3,0.4-4.3,1.1-6.2c0.8-1.8,1.8-3.4,3.2-4.7
		c1.4-1.3,3-2.3,4.8-3c1.9-0.7,3.9-1,6.1-1c2.2,0,4.3,0.3,6.1,1c1.9,0.7,3.5,1.7,4.8,3c1.4,1.3,2.4,2.9,3.2,4.7
		c0.8,1.8,1.1,3.9,1.1,6.2c0,2.3-0.4,4.3-1.1,6.2c-0.8,1.8-1.8,3.4-3.2,4.7c-1.4,1.3-3,2.3-4.8,3c-1.9,0.7-3.9,1-6.1,1
		c-2.2,0-4.3-0.3-6.1-1s-3.5-1.7-4.8-3c-1.4-1.3-2.4-2.9-3.2-4.7S183.9,27.3,183.9,25.1z M190.4,25.1c0,1.3,0.2,2.6,0.6,3.7
		c0.4,1.1,1,2.1,1.8,2.9c0.8,0.8,1.7,1.4,2.8,1.9c1.1,0.5,2.3,0.7,3.6,0.7c1.3,0,2.5-0.2,3.6-0.7c1.1-0.5,2-1.1,2.8-1.9
		c0.8-0.8,1.4-1.8,1.8-2.9s0.6-2.3,0.6-3.7c0-1.3-0.2-2.5-0.6-3.6c-0.4-1.1-1-2.1-1.8-2.9c-0.8-0.8-1.7-1.4-2.8-1.9
		c-1.1-0.5-2.3-0.7-3.6-0.7c-1.3,0-2.5,0.2-3.6,0.7c-1.1,0.5-2,1.1-2.8,1.9c-0.8,0.8-1.4,1.8-1.8,2.9
		C190.6,22.5,190.4,23.8,190.4,25.1z"/>
	<path fill="none" stroke="#245FF1" stroke-miterlimit="10" d="M222.7,10.9h11c1.4,0,2.8,0.1,4.1,0.4c1.3,0.3,2.4,0.7,3.4,1.4
		c1,0.7,1.7,1.5,2.3,2.6c0.6,1.1,0.9,2.5,0.9,4.1c0,2-0.5,3.7-1.6,5.1c-1,1.4-2.6,2.3-4.6,2.7l7.2,12h-7.5L232,27.9h-3.1v11.3h-6.2
		V10.9z M228.9,22.6h3.7c0.6,0,1.2,0,1.8-0.1c0.6,0,1.2-0.2,1.7-0.4s0.9-0.5,1.3-0.9c0.3-0.4,0.5-1,0.5-1.8c0-0.7-0.1-1.3-0.4-1.7
		c-0.3-0.4-0.7-0.8-1.1-1c-0.5-0.2-1-0.4-1.6-0.5c-0.6-0.1-1.2-0.1-1.7-0.1h-4.1V22.6z"/>
	<path fill="#245FF1" d="M0,43.2v-2h249.7v2H0z"/>
</g>
</svg>
