<?xml version="1.0" encoding="utf-8"?>
<!-- Generator: Adobe Illustrator 18.0.0, SVG Export Plug-In . SVG Version: 6.00 Build 0)  -->
<!DOCTYPE svg PUBLIC "-//W3C//DTD SVG 1.1//EN" "http://www.w3.org/Graphics/SVG/1.1/DTD/svg11.dtd">
<svg version="1.1" id="Layer_1" xmlns="http://www.w3.org/2000/svg" xmlns:xlink="http://www.w3.org/1999/xlink" x="0px" y="0px"
	 viewBox="0 0 58 58" enable-background="new 0 0 58 58" xml:space="preserve">
<g>
	<path fill="none" stroke="#009EDF" stroke-miterlimit="10" d="M4.9,43.3c1.3,2.2,3,4.2,4.8,6c0.5-0.6,1.3-1,2.2-1h34.3
		c0.9,0,1.6,0.4,2.2,1c1.9-1.8,3.5-3.8,4.9-6.1c-0.2,0-0.4,0.1-0.6,0.1H4.9z"/>
	<path fill="none" stroke="#009EDF" stroke-miterlimit="10" d="M55.6,26.8c0.5,0,1,0.1,1.4,0.4c-0.1-2.1-0.5-4.1-1-6
		c-0.5,0.4-1.1,0.6-1.8,0.6h-15c1.2,1.5,2,3.2,2.4,5H55.6z"/>
	<path fill="none" stroke="#009EDF" stroke-miterlimit="10" d="M3.8,21.8c-0.7,0-1.3-0.2-1.8-0.6c-0.6,1.9-0.9,3.9-1,6
		c0.4-0.2,0.9-0.4,1.4-0.4h14c0.4-1.9,1.3-3.6,2.4-5H3.8z"/>
	<path fill="none" stroke="#009EDF" stroke-miterlimit="10" d="M2.4,32.6c-0.4,0-0.9-0.1-1.2-0.3c0.2,2,0.7,3.9,1.3,5.7
		c0.4-0.2,0.9-0.4,1.4-0.4h14.8c-1.1-1.5-1.9-3.2-2.3-5H2.4z"/>
	<path fill="none" stroke="#009EDF" stroke-miterlimit="10" d="M41.7,32.6c-0.4,1.9-1.2,3.6-2.3,5h13.2c1.1,0,2.1,0.7,2.6,1.6
		c0.9-2.2,1.5-4.5,1.7-6.9c-0.4,0.2-0.8,0.3-1.2,0.3H41.7z"/>
	<path fill="none" stroke="#009EDF" stroke-miterlimit="10" d="M29,57.1c4.5,0,8.7-1.1,12.5-2.9h-25C20.3,56,24.5,57.1,29,57.1z"/>
	<path fill="none" stroke="#009EDF" stroke-miterlimit="10" d="M48.8,9.1c-0.4,1.1-1.5,1.9-2.7,1.9H11.9c-1.2,0-2.3-0.8-2.7-1.9
		c-2,2-3.7,4.3-5.1,6.9h49.8C52.6,13.5,50.8,11.2,48.8,9.1z"/>
	<path fill="none" stroke="#009EDF" stroke-miterlimit="10" d="M29,0.9c-5.5,0-10.6,1.6-15,4.3H44C39.6,2.5,34.5,0.9,29,0.9z"/>
	<path fill="none" stroke="#95979A" stroke-width="2" stroke-miterlimit="10" d="M29,40.3c-2,0-3.9-0.6-5.5-1.7h-4.9
		c2.4,3.2,6.1,5.2,10.4,5.2c4.3,0,8-2.1,10.4-5.2h-4.9C32.9,39.7,31,40.3,29,40.3z"/>
	<path display="none" fill="none" stroke="#95979A" stroke-width="3" stroke-miterlimit="10" d="M40,30c0,1.1-0.2,2.2-0.5,3.2h4.2
		c0.2-1,0.3-2.1,0.3-3.2c0-1.2-0.2-2.4-0.4-3.5h-4.2C39.8,27.6,40,28.7,40,30z"/>
	<path fill="none" stroke="#95979A" stroke-width="2" stroke-miterlimit="10" d="M29,19.3c1.8,0,3.6,0.5,5,1.4h5.2
		c-2.4-3-6-4.9-10.2-4.9s-7.8,1.9-10.2,4.9H24C25.4,19.9,27.2,19.3,29,19.3z"/>
	<path display="none" fill="none" stroke="#95979A" stroke-width="3" stroke-miterlimit="10" d="M18,30c0-1.2,0.2-2.4,0.6-3.5h-4.2
		C14.1,27.6,14,28.8,14,30c0,1.1,0.1,2.1,0.3,3.2h4.2C18.2,32.1,18,31.1,18,30z"/>
	<path display="none" fill="none" stroke="#009EDF" stroke-miterlimit="10" d="M23.2,20.7h-6c-1.3,1.7-2.3,3.7-2.8,5.8h4.2
		C19.4,24,21.1,22,23.2,20.7z"/>
	<path display="none" fill="none" stroke="#009EDF" stroke-miterlimit="10" d="M39.4,26.5h4.2c-0.5-2.2-1.5-4.1-2.8-5.8h-6
		C36.9,22,38.6,24,39.4,26.5z"/>
	<path display="none" fill="none" stroke="#009EDF" stroke-miterlimit="10" d="M39.5,33.1c-0.7,2.4-2.2,4.4-4.2,5.8H41
		c1.3-1.7,2.2-3.7,2.7-5.8H39.5z"/>
	<path display="none" fill="none" stroke="#009EDF" stroke-miterlimit="10" d="M18.5,33.1h-4.2c0.5,2.1,1.4,4.1,2.7,5.8h5.7
		C20.7,37.5,19.2,35.5,18.5,33.1z"/>
	<linearGradient id="SVGID_1_" gradientUnits="userSpaceOnUse" x1="18.0196" y1="39.9441" x2="39.9805" y2="39.9441">
		<stop  offset="1.644210e-002" style="stop-color:#818386"/>
		<stop  offset="0.1367" style="stop-color:#A1A3A7"/>
		<stop  offset="0.9844" style="stop-color:#E1E3E8"/>
	</linearGradient>
	<linearGradient id="SVGID_2_" gradientUnits="userSpaceOnUse" x1="29" y1="42.4512" x2="29" y2="17.1102">
		<stop  offset="3.001430e-002" style="stop-color:#BCBDC1"/>
		<stop  offset="0.9844" style="stop-color:#E1E3E8"/>
	</linearGradient>
	<path display="none" fill="url(#SVGID_1_)" stroke="url(#SVGID_2_)" stroke-width="3" stroke-miterlimit="10" d="M29,41
		c2.4,0,4.5-0.7,6.3-2H22.7C24.5,40.2,26.6,41,29,41z"/>
	<linearGradient id="SVGID_3_" gradientUnits="userSpaceOnUse" x1="18.0195" y1="29.7981" x2="39.9804" y2="29.7981">
		<stop  offset="7.553410e-003" style="stop-color:#339900"/>
		<stop  offset="0.4733" style="stop-color:#67BE19"/>
		<stop  offset="1" style="stop-color:#8ED938"/>
	</linearGradient>
	<path display="none" fill="url(#SVGID_3_)" d="M39.4,26.5H18.6C18.2,27.6,18,28.7,18,30c0,1.1,0.2,2.2,0.5,3.2h21
		c0.3-1,0.5-2.1,0.5-3.2C40,28.7,39.8,27.6,39.4,26.5z"/>
	<linearGradient id="SVGID_4_" gradientUnits="userSpaceOnUse" x1="18.019" y1="19.8243" x2="39.981" y2="19.8243">
		<stop  offset="1.644210e-002" style="stop-color:#818386"/>
		<stop  offset="0.1367" style="stop-color:#A1A3A7"/>
		<stop  offset="0.9844" style="stop-color:#E1E3E8"/>
	</linearGradient>
	<linearGradient id="SVGID_5_" gradientUnits="userSpaceOnUse" x1="28.9998" y1="42.8639" x2="28.9998" y2="17.4893">
		<stop  offset="3.001430e-002" style="stop-color:#BCBDC1"/>
		<stop  offset="0.9844" style="stop-color:#E1E3E8"/>
	</linearGradient>
	<path display="none" fill="url(#SVGID_4_)" stroke="url(#SVGID_5_)" stroke-width="3" stroke-miterlimit="10" d="M29,19
		c-2.1,0-4.1,0.6-5.8,1.7h11.6C33.1,19.6,31.1,19,29,19z"/>
	<g display="none">
		<path display="inline" fill="#BFC1C2" stroke="#95979A" stroke-width="2" stroke-miterlimit="10" d="M34.2,21.7H23.8
			c-1.9,1.2-3.4,3.1-4.1,5.3h18.5C37.5,24.8,36.1,22.9,34.2,21.7z"/>
		<path display="inline" fill="#BFC1C2" stroke="#95979A" stroke-width="2" stroke-miterlimit="10" d="M19.6,33.1
			c0.6,2.2,2,4,3.7,5.3h11.3c1.8-1.3,3.1-3.1,3.7-5.3H19.6z"/>
	</g>
</g>
<g>
	<path fill="#BFC1C2" stroke="#95979A" stroke-width="2" stroke-miterlimit="10" d="M20.8,33.6c1.1,3.6,4.4,6.2,8.4,6.2
		c4,0,7.3-2.6,8.4-6.2H20.8z"/>
	<path fill="#BFC1C2" stroke="#95979A" stroke-width="2" stroke-miterlimit="10" d="M37.3,25.8c-1.3-3.2-4.4-5.5-8.1-5.5
		c-3.7,0-6.9,2.3-8.1,5.5H37.3z"/>
</g>
</svg>
